<?xml version="1.0" encoding="UTF-8" standalone="no"?>
<svg xmlns="http://www.w3.org/2000/svg" 
version="1.1" xmlns:xlink="http://www.w3.org/1999/xlink"
 xmlns:svgjs="http://svgjs.dev/svgjs" width="200" height="200"
  viewBox="0 0 1500 1500"><rect width="1500" height="1500"
   fill="#ffffff"></rect><g 
   transform="matrix(0.6666666666666666,0,0,0.6666666666666666,249.78425655976667,249.78425655976673)">
   <svg viewBox="0 0 343 343" data-background-color="#2f2a29" 
   preserveAspectRatio="xMidYMid meet" height="1500" width="1500" 
   xmlns="http://www.w3.org/2000/svg" xmlns:xlink="http://www.w3.org/1999/xlink">
   <g id="tight-bounds" transform="matrix(1,0,0,1,0.0740000000000407,0.07400000000001228)">
   <svg viewBox="0 0 342.85155851775386 342.85155851775386" height="342.85155851775386"
    width="342.85155851775386"><g><svg></svg></g><g><svg viewBox="0 0 342.85155851775386 342.85155851775386"
     height="342.85155851775386" width="342.85155851775386"><g><path 
     d="M0 171.426c0-94.676 76.75-171.426 171.426-171.426 94.676 
     0 171.426 76.75 171.426 171.426 0 94.676-76.75 171.426-171.426 
     171.426-94.676 0-171.426-76.75-171.426-171.426zM171.426 337.346c91.635
      0 165.92-74.285 165.92-165.92 0-91.635-74.285-165.92-165.92-165.92-91.635
       0-165.92 74.285-165.92 165.92 0 91.635 74.285 165.92 165.92 165.92z" 
       data-fill-palette-color="tertiary" fill="#000000" stroke="transparent">
       </path><ellipse rx="164.56874808852186" ry="164.56874808852186" 
       cx="171.42577925887693" cy="171.42577925887693" fill="#000000" 
       stroke="transparent" stroke-width="0" fill-opacity="1" data-fill-palette-color="tertiary">
       </ellipse></g><g transform="matrix(1,0,0,1,64.84655864529837,91.50248292620006)">
       <svg viewBox="0 0 213.1584412271571 159.84659266535374" height="159.84659266535374"
        width="213.1584412271571"><g><svg viewBox="0 0 213.1584412271571 159.84659266535374"
         height="159.84659266535374" width="213.1584412271571"><g>
         <svg viewBox="0 0 213.1584412271571 159.84659266535374" 
         height="159.84659266535374" width="213.1584412271571"><g 
         transform="matrix(1,0,0,1,0,98.79160699444358)"><svg 
         viewBox="0 0 213.1584412271571 61.05498567091014" 
         height="61.05498567091014" width="213.1584412271571">
         <g id="textblocktransform"><svg viewBox="0 0 213.1584412271571 61.05498567091014"
          height="61.05498567091014" width="213.1584412271571" id="textblock"><g><svg 
          viewBox="0 0 213.1584412271571 61.05498567091014" height="61.05498567091014"
           width="213.1584412271571"><g transform="matrix(1,0,0,1,0,0)"><svg width="213.1584412271571"
            viewBox="3.45 -33.7 119.74 34.300000000000004" height="61.05498567091014" 
            data-palette-color="#2f2a29"><path d="M13.1 0.6L13.1 0.6Q10.15 0.6 7.53-0.1 4.9-0.8 3.45-1.35L3.45-1.35 
            3.45-3.7Q4.3-3.3 5.75-2.68 7.2-2.05 8.95-1.6 10.7-1.15 12.35-1.15L12.35-1.15Q15.65-1.15 17.68-2.88 19.7-4.6
             19.7-7.75L19.7-7.75Q19.7-9.7 18.55-11.1 17.4-12.5 15.58-13.65 13.75-14.8 11.7-15.88 9.65-16.95 7.83-18.23
              6-19.5 4.85-21.23 3.7-22.95 3.7-25.3L3.7-25.3Q3.7-27.25 4.75-29.18 5.8-31.1 8.1-32.4 10.4-33.7 
              14.15-33.7L14.15-33.7Q16.2-33.7 18.6-33.2 21-32.7 22.75-32.15L22.75-32.15 22.25-28.75Q19.35-30 
              16.5-30.83 13.65-31.65 10.7-31.65L10.7-31.65Q9.25-30.95 8.68-29.83 8.1-28.7 8.1-27.35L8.1-27.35Q8.1-25.35 
              9.3-23.83 10.5-22.3 12.43-21.03 14.35-19.75 16.48-18.55 18.6-17.35 20.53-15.95 22.45-14.55 23.65-12.8 24.85-11.05
               24.85-8.7L24.85-8.7Q24.85-6.1 23.55-3.98 22.25-1.85 19.65-0.63 17.05 0.6 13.1 0.6ZM39.95 0.6L39.95 0.6Q36.85 0.6 
               34.37-0.7 31.9-2 30.5-4.5 29.1-7 29.1-10.6L29.1-10.6Q29.1-14.75 30.7-17.55 32.3-20.35 34.9-21.78 37.5-23.2 
               40.45-23.2L40.45-23.2Q42.8-23.2 44.72-21.98 46.65-20.75 47.82-18.32 49-15.9 49-12.3L49-12.3 33.05-12.3Q33.05-8.4 
               34.27-6.18 35.5-3.95 37.47-3.05 39.45-2.15 41.6-2.15L41.6-2.15Q43.55-2.15 45.05-2.55 46.55-2.95 47.8-3.5L47.8-3.5
               47.8-1.75Q46.25-0.85 44.25-0.13 42.25 0.6 39.95 0.6ZM33.25-13.8L33.25-13.8 44.95-13.8Q44.8-16.05 43.97-17.45 
               43.15-18.85 42.02-19.58 40.9-20.3 39.77-20.58 38.65-20.85 37.9-20.85L37.9-20.85Q36.2-20.05 34.92-18.18 
               33.65-16.3 33.25-13.8ZM59.5 0L55.25 0 55.25-15.7Q55.25-17.45 54.77-18.53 54.3-19.6 53.7-20.23 53.1-20.85 
               52.7-21.15L52.7-21.15 55.25-23.05 59.35-19.4Q61.2-21.15 62.82-22.18 64.45-23.2 66.65-23.2L66.65-23.2Q67.8-23.2 
               69.17-22.6 70.55-22 71.55-20.38 72.55-18.75 72.55-15.65L72.55-15.65 72.55 0 68.3 0 68.3-15.15Q68.3-17.5 67.47-18.78 
               66.65-20.05 64.45-20.05L64.45-20.05Q62.3-20.05 59.5-17.25L59.5-17.25 59.5 0ZM84.14 0L79.99 0 79.99-22.6 84.14-22.6 
               84.14 0ZM82.04-27.05L82.04-27.05Q80.94-27.05 80.22-27.85 79.49-28.65 79.49-29.65L79.49-29.65Q79.49-30.75 80.22-31.5
                80.94-32.25 82.04-32.25L82.04-32.25Q83.09-32.25 83.87-31.5 84.64-30.75 84.64-29.65L84.64-29.65Q84.64-28.65 
                83.87-27.85 83.09-27.05 82.04-27.05ZM96.24 0L92.04 0 92.04-15.7Q92.04-17.45 91.57-18.53 91.09-19.6 90.49-20.23 
                89.89-20.85 89.49-21.15L89.49-21.15 92.04-23.05 96.04-19.4Q98.19-21.2 99.99-22.2 101.79-23.2 
                103.79-23.2L103.79-23.2Q106.29-23.2 107.54-21.98 108.79-20.75 109.19-19.15L109.19-19.15Q109.74-19.75
                 110.87-20.73 111.99-21.7 113.64-22.45 115.29-23.2 117.29-23.2L117.29-23.2Q119.24-23.2 120.42-22.35
                   121.59-21.5 122.19-20.13 122.79-18.75 122.99-17.2 123.19-15.65 123.19-14.25L123.19-14.25 123.19 0 
                   118.99 0 118.99-14.65Q118.99-15.95 118.82-17.23 118.64-18.5 117.89-19.35 117.14-20.2 
                   115.29-20.2L115.29-20.2Q113.74-20.2 112.09-19.33 110.44-18.45 109.74-17.35L109.74-17.35 
                   109.74 0 105.49 0 105.49-14.9Q105.49-17.4 104.74-18.8 103.99-20.2 102.04-20.2L102.04-20.2Q100.69-20.2 
                   99.34-19.53 97.99-18.85 97.12-18.13 96.24-17.4 96.24-17.25L96.24-17.25 96.24 0Z" opacity="1"
                    transform="matrix(1,0,0,1,0,0)" fill="#ffffff" class="wordmark-text-0" data-fill-palette-color="quaternary" 
                    id="text-0"></path></svg></g></svg></g></svg></g></svg></g><g transform="matrix(1,0,0,1,54.12278091381605,0)"><svg viewBox="0 0 104.91287939952501 84.3779901971978" 
                    height="84.3779901971978" width="104.91287939952501"><g><svg xmlns="http://www.w3.org/2000/svg" 
                    xmlns:xlink="http://www.w3.org/1999/xlink" version="1.1" x="0" y="0" viewBox="0 9.786 100.00034525290005 80.42699999999999"
                     enable-background="new 0 0 100 100" xml:space="preserve" id="icon-0" width="104.91287939952501" height="84.3779901971978" 
                     class="icon-icon-0" data-fill-palette-color="quaternary"><path d="M49.942 52.994L90.595 51.529C88.068 47.352 87.436
                      43.698 82.606 43.068 75.377 42.128 68.148 41.185 60.918 40.242L18.843 34.762C20.101 36.792 39.724 53.361 49.942 52.994" 
                      fill="#ffffff" data-fill-palette-color="quaternary"></path><path d="M0 9.786C4.391 17.043 26.615 32.858 32.953 33.672 
                      50.283 35.903 67.61 38.132 84.939 40.36 81.546 34.753 80.759 31.01 74.627 29.401L47.91 22.378C31.94 18.182 15.97 13.984
                      0 9.786" fill="#ffffff" data-fill-palette-color="quaternary"></path><path d="M63.108 66.207L94.349 59.547C92.321 56.201
                       92.315 54.188 88.522 54.358 82.364 54.631 76.208 54.907 70.051 55.18 58.708 55.686 47.365 56.194 36.023 56.698 37.298 
                       58.064 54.94 67.947 63.108 66.207" fill="#ffffff" data-fill-palette-color="quaternary"></path><path d="M87.682 90.213C93.407
                        86.494 94.944 82.492 98.201 76.406 101.852 69.582 99.458 68.562 95.38 61.81 94.963 61.122 89.538 62.042 88.927 62.714 
                        88.182 63.532 88.679 68.169 88.633 69.21z" fill="#ffffff" data-fill-palette-color="quaternary"></path><path d="M86.35 
                        63.447C82.555 64.256 77.746 63.638 76.778 67.676L72.658 84.887C81.904 82.678 86.028 71.582 86.35 63.447" fill="#ffffff" 
                        data-fill-palette-color="quaternary"></path><path d="M74.666 66.121C65.518 68.074 65.71 70.732 61.787 79.301 68.007 
                        78.711 73.811 71.941 74.666 66.121" fill="#ffffff" data-fill-palette-color="quaternary"></path></svg></g></svg></g>
                        <g></g></svg></g></svg></g></svg></g></svg></g><defs></defs></svg><rect width="342.85155851775386" 
                        height="342.85155851775386" fill="none" stroke="none" visibility="hidden"></rect></g></svg></g></svg>